HIERARCHY
ROOT hip
{
  OFFSET 0.00112043 5.09927 -9.65472
  CHANNELS 6 Xposition Yposition Zposition Zrotation Xrotation Yrotation
  JOINT abdomen
  {
    OFFSET 0 -1.186 -1.5018
    CHANNELS 3 Zrotation Xrotation Yrotation
    JOINT abdomen2
    {
      OFFSET 0 9.964 0.2134
      CHANNELS 3 Zrotation Xrotation Yrotation
      JOINT chest
      {
        OFFSET 0 13.134 -3.2573
        CHANNELS 3 Zrotation Xrotation Yrotation
        JOINT neck
        {
          OFFSET 0 20.686 -1.6905
          CHANNELS 3 Zrotation Xrotation Yrotation
          JOINT head
          {
            OFFSET 0 7.238 -0.1237
            CHANNELS 3 Zrotation Xrotation Yrotation
            End Site
            {
              OFFSET 0 0 0
            }
          }
        }
        JOINT lCollar
        {
          OFFSET 1.7069 20.075 5.0056
          CHANNELS 3 Zrotation Xrotation Yrotation
          JOINT lShldr
          {
            OFFSET 13.6458 -0.047 -4.849
            CHANNELS 3 Zrotation Xrotation Yrotation
            JOINT lForeArm
            {
              OFFSET 28.3255 -0.9759 2.2888
              CHANNELS 3 Zrotation Xrotation Yrotation
              JOINT lHand
              {
                OFFSET 22.1583 -0.53 10.8316
                CHANNELS 3 Zrotation Xrotation Yrotation
                JOINT lThumb1
                {
                  OFFSET 0.786 0.112 2.5817
                  CHANNELS 3 Zrotation Xrotation Yrotation
                  JOINT lThumb2
                  {
                    OFFSET 0.3601 -0.878 4.2331
                    CHANNELS 3 Zrotation Xrotation Yrotation
                    JOINT lThumb2_End
                    {
                      OFFSET 1.8127 -1.216 2.2227
                      CHANNELS 3 Zrotation Xrotation Yrotation
                      End Site
                      {
                        OFFSET 0.0181 -0.0122 0.0222
                      }
                    }
                  }
                }
                JOINT lCarpal1
                {
                  OFFSET 0.9571 1.114 1.7695
                  CHANNELS 3 Zrotation Xrotation Yrotation
                  JOINT lIndex1
                  {
                    OFFSET 4.1246 0.487 4.1451
                    CHANNELS 3 Zrotation Xrotation Yrotation
                    JOINT lIndex2
                    {
                      OFFSET 3.4052 -1.454 2.7682
                      CHANNELS 3 Zrotation Xrotation Yrotation
                      JOINT lIndex2_End
                      {
                        OFFSET 1.4531 -1.795 1.2713
                        CHANNELS 3 Zrotation Xrotation Yrotation
                        End Site
                        {
                          OFFSET 0.0145 -0.0179 0.0127
                        }
                      }
                    }
                  }
                  JOINT lMid1
                  {
                    OFFSET 5.6954 0.21 2.1184
                    CHANNELS 3 Zrotation Xrotation Yrotation
                    JOINT lMid2
                    {
                      OFFSET 3.9766 -1.54 2.3863
                      CHANNELS 3 Zrotation Xrotation Yrotation
                      JOINT lMid2_End
                      {
                        OFFSET 1.4042 -1.926 1.125
                        CHANNELS 3 Zrotation Xrotation Yrotation
                        End Site
                        {
                          OFFSET 0.014 -0.0193 0.0113
                        }
                      }
                    }
                  }
                }
                JOINT lCarpal2
                {
                  OFFSET 2.0956 0.66 -0.3894
                  CHANNELS 3 Zrotation Xrotation Yrotation
                  JOINT lRing1
                  {
                    OFFSET 5.0395 -0.09 2.4971
                    CHANNELS 3 Zrotation Xrotation Yrotation
                    JOINT lRing2
                    {
                      OFFSET 3.7921 -1.552 1.4806
                      CHANNELS 3 Zrotation Xrotation Yrotation
                      JOINT lRing2_End
                      {
                        OFFSET 1.4655 -1.808 0.9609
                        CHANNELS 3 Zrotation Xrotation Yrotation
                        End Site
                        {
                          OFFSET 0.0147 -0.0181 0.0096
                        }
                      }
                    }
                  }
                  JOINT lPinky1
                  {
                    OFFSET 4.9141 -1.269 0.3591
                    CHANNELS 3 Zrotation Xrotation Yrotation
                    JOINT lPinky2
                    {
                      OFFSET 3.1477 -1.685 0.8462
                      CHANNELS 3 Zrotation Xrotation Yrotation
                      JOINT lPinky2_End
                      {
                        OFFSET 0.8055 -1.585 0.7955
                        CHANNELS 3 Zrotation Xrotation Yrotation
                        End Site
                        {
                          OFFSET 0.0081 -0.0158 0.008
                        }
                      }
                    }
                  }
                }
              }
            }
          }
        }
        JOINT rCollar
        {
          OFFSET -1.7069 20.075 5.0056
          CHANNELS 3 Zrotation Xrotation Yrotation
          JOINT rShldr
          {
            OFFSET -13.6458 -0.047 -4.849
            CHANNELS 3 Zrotation Xrotation Yrotation
            JOINT rForeArm
            {
              OFFSET -28.3255 -0.9759 2.2888
              CHANNELS 3 Zrotation Xrotation Yrotation
              JOINT rHand
              {
                OFFSET -22.1583 -0.53 10.8316
                CHANNELS 3 Zrotation Xrotation Yrotation
                JOINT rThumb1
                {
                  OFFSET -0.786 0.112 2.5817
                  CHANNELS 3 Zrotation Xrotation Yrotation
                  JOINT rThumb2
                  {
                    OFFSET -0.3601 -0.878 4.2331
                    CHANNELS 3 Zrotation Xrotation Yrotation
                    JOINT rThumb2_End
                    {
                      OFFSET -1.8127 -1.216 2.2227
                      CHANNELS 3 Zrotation Xrotation Yrotation
                      End Site
                      {
                        OFFSET -0.0181 -0.0122 0.0222
                      }
                    }
                  }
                }
                JOINT rCarpal1
                {
                  OFFSET -0.9571 1.114 1.7695
                  CHANNELS 3 Zrotation Xrotation Yrotation
                  JOINT rIndex1
                  {
                    OFFSET -4.1246 0.487 4.1451
                    CHANNELS 3 Zrotation Xrotation Yrotation
                    JOINT rIndex2
                    {
                      OFFSET -3.4052 -1.454 2.7682
                      CHANNELS 3 Zrotation Xrotation Yrotation
                      JOINT rIndex2_End
                      {
                        OFFSET -1.4531 -1.795 1.2713
                        CHANNELS 3 Zrotation Xrotation Yrotation
                        End Site
                        {
                          OFFSET -0.0145 -0.018 0.0127
                        }
                      }
                    }
                  }
                  JOINT rMid1
                  {
                    OFFSET -5.6954 0.21 2.1184
                    CHANNELS 3 Zrotation Xrotation Yrotation
                    JOINT rMid2
                    {
                      OFFSET -3.9766 -1.54 2.3863
                      CHANNELS 3 Zrotation Xrotation Yrotation
                      JOINT rMid2_End
                      {
                        OFFSET -1.4042 -1.926 1.125
                        CHANNELS 3 Zrotation Xrotation Yrotation
                        End Site
                        {
                          OFFSET -0.014 -0.0193 0.0113
                        }
                      }
                    }
                  }
                }
                JOINT rCarpal2
                {
                  OFFSET -2.0956 0.66 -0.3894
                  CHANNELS 3 Zrotation Xrotation Yrotation
                  JOINT rRing1
                  {
                    OFFSET -5.0395 -0.09 2.4971
                    CHANNELS 3 Zrotation Xrotation Yrotation
                    JOINT rRing2
                    {
                      OFFSET -3.7921 -1.552 1.4806
                      CHANNELS 3 Zrotation Xrotation Yrotation
                      JOINT rRing2_End
                      {
                        OFFSET -1.4655 -1.808 0.9609
                        CHANNELS 3 Zrotation Xrotation Yrotation
                        End Site
                        {
                          OFFSET -0.0147 -0.0181 0.0096
                        }
                      }
                    }
                  }
                  JOINT rPinky1
                  {
                    OFFSET -4.9141 -1.269 0.3592
                    CHANNELS 3 Zrotation Xrotation Yrotation
                    JOINT rPinky2
                    {
                      OFFSET -3.1477 -1.685 0.8462
                      CHANNELS 3 Zrotation Xrotation Yrotation
                      JOINT rPinky2_End
                      {
                        OFFSET -0.8055 -1.585 0.7955
                        CHANNELS 3 Zrotation Xrotation Yrotation
                        End Site
                        {
                          OFFSET -0.0081 -0.0158 0.008
                        }
                      }
                    }
                  }
                }
              }
            }
          }
        }
      }
    }
  }
  JOINT lThigh
  {
    OFFSET 8.367 -8.2066 0.5982
    CHANNELS 3 Zrotation Xrotation Yrotation
    JOINT lShin
    {
      OFFSET 2.1923 -43.463 -0.4932
      CHANNELS 3 Zrotation Xrotation Yrotation
      JOINT lFoot
      {
        OFFSET 0.7333 -45.8593 -2.6451
        CHANNELS 3 Zrotation Xrotation Yrotation
        End Site
        {
          OFFSET 2.6618 -4.2699 12.3931
        }
      }
    }
  }
  JOINT rThigh
  {
    OFFSET -8.367 -8.2066 0.5982
    CHANNELS 3 Zrotation Xrotation Yrotation
    JOINT rShin
    {
      OFFSET -2.1923 -43.463 -0.4931
      CHANNELS 3 Zrotation Xrotation Yrotation
      JOINT rFoot
      {
        OFFSET -0.7333 -45.8593 -2.6451
        CHANNELS 3 Zrotation Xrotation Yrotation
        End Site
        {
          OFFSET -2.6618 -4.2699 12.3931
        }
      }
    }
  }
}
MOTION
Frames:	4
Frame Time:	0.0333333
4.87283 41.9454 16.5193 0 0 -41.0003 1.25149 4.82492 0.642208 2.46161 9.6625 1.18444 2.46161 9.66249 1.18442 -9.7731e-005 20.9966 8.64611e-006 3.1338 16.975 -17.9183 -36.6519 2.86157 1.75684 -33.1642 -20.8109 -4.73177 -30.1822 27.7291 17.1374 18.7196 -7.15722 1.52417 1.59028e-015 -3.18055e-015 -7.95139e-016 8.76333e-007 -2.70294e-006 -5.61983e-007 1.53101e-006 -6.83693e-007 2.86307e-006 1.59028e-015 -3.18055e-015 -7.95139e-016 3.97569e-015 -3.18055e-015 7.95139e-015 8.76333e-007 -2.70294e-006 -5.61983e-007 1.53101e-006 -6.83693e-007 2.86307e-006 3.97569e-015 -3.18055e-015 7.95139e-015 8.76333e-007 -2.70294e-006 -5.61983e-007 1.53101e-006 -6.83693e-007 2.86307e-006 1.59028e-015 -3.18055e-015 -7.95139e-016 3.97569e-015 -3.18055e-015 7.95139e-015 8.76333e-007 -2.70294e-006 -5.61983e-007 1.53101e-006 -6.83693e-007 2.86307e-006 3.97569e-015 -3.18055e-015 7.95139e-015 8.76333e-007 -2.70294e-006 -5.61983e-007 1.53101e-006 -6.83693e-007 2.86307e-006 -3.02155 0.297754 7.47664 25.2867 -0.832973 -20.9589 39.1313 -13.7209 34.8376 19.1807 -9.26741 4.39289 1.59028e-015 3.18055e-015 2.98177e-015 1.59028e-015 0 9.93923e-016 1.98785e-015 -3.18055e-015 -5.96354e-016 1.59028e-015 3.18055e-015 3.37934e-015 -3.18055e-015 0 1.31198e-014 -1.19271e-015 0 1.98785e-016 -2.38542e-015 0 7.95139e-016 -3.18055e-015 0 1.31198e-014 -1.19271e-015 0 1.98785e-016 -2.38542e-015 0 7.95139e-016 1.59028e-015 3.18055e-015 3.37934e-015 -3.18055e-015 0 1.31198e-014 -1.19271e-015 0 1.98785e-016 -2.38542e-015 0 7.95139e-016 -3.18055e-015 0 1.31198e-014 -1.19271e-015 0 1.98785e-016 -2.38542e-015 0 7.95139e-016 14.9085 -25.6339 18.8361 157.134 61.7102 -158.403 13.5953 64.1557 9.02843 -14.9135 -25.6329 -18.8406 -157.136 61.7111 158.4 -13.5999 64.1559 -9.0296 
4.87283 41.9454 16.5193 0 0 -41.0003 1.25742 4.80567 0.639847 2.47385 9.624 1.17953 2.47385 9.624 1.17953 -8.91023e-005 20.9967 4.507e-005 3.1338 16.975 -17.9183 -36.6519 2.86157 1.75683 -33.1642 -20.8109 -4.73177 -29.7991 27.7626 16.7501 18.7196 -7.15723 1.52417 -4.41391e-032 -3.18055e-015 -7.95139e-016 7.95139e-016 3.18055e-015 -4.77083e-015 4.77083e-015 0 -8.74653e-015 -5.56597e-015 -3.18055e-015 -2.38542e-015 -5.56597e-015 3.18055e-015 6.36111e-015 2.38542e-015 3.18055e-015 2.38542e-015 7.95139e-015 0 3.18055e-015 -5.56597e-015 3.18055e-015 6.36111e-015 2.38542e-015 3.18055e-015 2.38542e-015 7.95139e-015 0 3.18055e-015 -5.56597e-015 -3.18055e-015 -2.38542e-015 -5.56597e-015 3.18055e-015 6.36111e-015 2.38542e-015 3.18055e-015 2.38542e-015 7.95139e-015 0 3.18055e-015 -5.56597e-015 3.18055e-015 6.36111e-015 2.38542e-015 3.18055e-015 2.38542e-015 7.95139e-015 0 3.18055e-015 -2.99121 0.303104 7.43516 25.5472 -0.618054 -20.7355 39.0188 -13.5242 35.1424 19.2099 -9.10315 4.34803 1.15689e-006 1.85947e-006 2.43895e-006 6.03271e-006 1.40515e-006 2.96126e-006 1.15689e-006 1.85947e-006 2.43895e-006 -1.39149e-015 6.36111e-015 3.57812e-015 1.15689e-006 1.85947e-006 2.43895e-006 6.03271e-006 1.40515e-006 2.96126e-006 1.15689e-006 1.85947e-006 2.43895e-006 1.15689e-006 1.85947e-006 2.43895e-006 6.03271e-006 1.40515e-006 2.96126e-006 1.15689e-006 1.85947e-006 2.43895e-006 -1.39149e-015 6.36111e-015 3.57812e-015 1.15689e-006 1.85947e-006 2.43895e-006 6.03271e-006 1.40515e-006 2.96126e-006 1.15689e-006 1.85947e-006 2.43895e-006 1.15689e-006 1.85947e-006 2.43895e-006 6.03271e-006 1.40515e-006 2.96126e-006 1.15689e-006 1.85947e-006 2.43895e-006 14.9085 -25.6339 18.8361 157.134 61.7102 -158.403 13.5953 64.1557 9.02843 -14.9135 -25.6329 -18.8406 -157.136 61.7111 158.4 -13.5999 64.1559 -9.0296 
4.87283 41.9454 16.5193 0 0 -41.0003 1.26335 4.78641 0.637429 2.48608 9.5855 1.17466 2.48609 9.58551 1.17463 -0.000216617 20.9969 3.32858e-005 3.13381 16.975 -17.9184 -36.6519 2.86157 1.75686 -33.1642 -20.8109 -4.73177 -29.4151 27.794 16.3618 18.7195 -7.15722 1.52417 2.38542e-015 0 7.15625e-015 9.54166e-015 -6.36111e-015 7.95139e-015 9.54166e-015 -6.36111e-015 3.97569e-015 -7.15625e-015 6.36111e-015 -2.38542e-015 -7.95139e-016 0 5.56597e-015 1.11319e-014 -3.18055e-015 5.56597e-015 1.51076e-014 -3.18055e-015 4.77083e-015 -7.95139e-016 0 5.56597e-015 1.11319e-014 -3.18055e-015 5.56597e-015 1.51076e-014 -3.18055e-015 4.77083e-015 -7.15625e-015 6.36111e-015 -2.38542e-015 -7.95139e-016 0 5.56597e-015 1.11319e-014 -3.18055e-015 5.56597e-015 1.51076e-014 -3.18055e-015 4.77083e-015 -7.95139e-016 0 5.56597e-015 1.11319e-014 -3.18055e-015 5.56597e-015 1.51076e-014 -3.18055e-015 4.77083e-015 -2.96087 0.308449 7.39369 25.8072 -0.401813 -20.5128 38.9052 -13.3277 35.4478 19.2393 -8.93896 4.30312 4.96962e-015 -9.54166e-015 1.98785e-015 -3.95531e-006 -2.00909e-006 1.32275e-006 4.87381e-006 1.88591e-006 -2.30155e-006 4.77083e-015 -3.18055e-015 1.88845e-015 6.75868e-015 6.36111e-015 4.67144e-015 -3.95531e-006 -2.00909e-006 1.32275e-006 4.87381e-006 1.88591e-006 -2.30155e-006 6.75868e-015 6.36111e-015 4.67144e-015 -3.95531e-006 -2.00909e-006 1.32275e-006 4.87381e-006 1.88591e-006 -2.30155e-006 4.77083e-015 -3.18055e-015 1.88845e-015 6.75868e-015 6.36111e-015 4.67144e-015 -3.95531e-006 -2.00909e-006 1.32275e-006 4.87381e-006 1.88591e-006 -2.30155e-006 6.75868e-015 6.36111e-015 4.67144e-015 -3.95531e-006 -2.00909e-006 1.32275e-006 4.87381e-006 1.88591e-006 -2.30155e-006 14.9085 -25.6339 18.8361 157.134 61.7102 -158.403 13.5953 64.1557 9.02843 -14.9135 -25.6329 -18.8406 -157.136 61.7111 158.4 -13.5999 64.1559 -9.0296 
4.87283 41.9454 16.5193 0 0 -41.0003 1.26927 4.76715 0.635075 2.4983 9.547 1.16977 2.4983 9.547 1.16976 -7.29896e-005 20.9966 6.09338e-005 3.13379 16.975 -17.9183 -36.6519 2.86157 1.75685 -33.1642 -20.8109 -4.73177 -29.0302 27.823 15.9727 18.7196 -7.15722 1.52417 -2.38542e-015 -6.36111e-015 1.59028e-015 -7.95139e-016 0 -2.38542e-015 2.38542e-015 3.18055e-015 -5.56597e-015 -2.38542e-015 -6.36111e-015 1.59028e-015 5.56597e-015 -9.54166e-015 6.36111e-015 -3.18055e-015 -9.54166e-015 -3.18055e-015 -6.36111e-015 -9.54166e-015 -3.18055e-015 5.56597e-015 -9.54166e-015 6.36111e-015 -3.18055e-015 -9.54166e-015 -3.18055e-015 -6.36111e-015 -9.54166e-015 -3.18055e-015 -2.38542e-015 -6.36111e-015 1.59028e-015 5.56597e-015 -9.54166e-015 6.36111e-015 -3.18055e-015 -9.54166e-015 -3.18055e-015 -6.36111e-015 -9.54166e-015 -3.18055e-015 5.56597e-015 -9.54166e-015 6.36111e-015 -3.18055e-015 -9.54166e-015 -3.18055e-015 -6.36111e-015 -9.54166e-015 -3.18055e-015 -2.93052 0.313756 7.35218 26.0668 -0.184269 -20.2908 38.7904 -13.1315 35.7538 19.2688 -8.7748 4.25815 9.93923e-017 -1.27222e-014 -2.98177e-016 -3.18055e-015 0 2.68359e-015 -3.97569e-016 -3.18055e-015 7.95139e-016 -6.62086e-032 -9.54166e-015 -3.97569e-016 1.2921e-015 6.36111e-015 5.06901e-015 9.93923e-016 -6.36111e-015 1.59028e-015 3.31043e-032 -9.54166e-015 1.98785e-016 1.2921e-015 6.36111e-015 5.06901e-015 9.93923e-016 -6.36111e-015 1.59028e-015 3.31043e-032 -9.54166e-015 1.98785e-016 -6.62086e-032 -9.54166e-015 -3.97569e-016 1.2921e-015 6.36111e-015 5.06901e-015 9.93923e-016 -6.36111e-015 1.59028e-015 3.31043e-032 -9.54166e-015 1.98785e-016 1.2921e-015 6.36111e-015 5.06901e-015 9.93923e-016 -6.36111e-015 1.59028e-015 3.31043e-032 -9.54166e-015 1.98785e-016 14.9085 -25.6339 18.8361 157.134 61.7102 -158.403 13.5953 64.1557 9.02843 -14.9135 -25.6329 -18.8406 -157.136 61.7111 158.4 -13.5999 64.1559 -9.0296 
